<?xml version="1.0" encoding="utf-8"?>
<!-- Generator: Adobe Illustrator 16.0.0, SVG Export Plug-In . SVG Version: 6.00 Build 0)  -->
<!DOCTYPE svg PUBLIC "-//W3C//DTD SVG 1.1//EN" "http://www.w3.org/Graphics/SVG/1.1/DTD/svg11.dtd">
<svg version="1.1" xmlns="http://www.w3.org/2000/svg" xmlns:xlink="http://www.w3.org/1999/xlink" x="0px" y="0px" width="480px"
	 height="480px" viewBox="0 0 480 480" enable-background="new 0 0 480 480" xml:space="preserve">
<g id="Layer_2">
	<polyline fill="#FFFFFF" points="211.292,123.417 203.583,81.792 216.656,63.583 247.932,58.386 272.425,75.578 278.681,104.227 
		265.664,125.582 261.498,139.125 295.874,151.625 314.625,196.938 301.604,236.521 275.042,256.833 301.083,270.896 
		345.146,314.125 359,362.563 359,415 353.167,428.188 120.875,422.979 117.75,352.667 132.333,316.208 159.417,283.396 
		191.708,266.208 201.604,257.354 172.438,231.833 164.625,180.792 179.729,158.917 204.208,145.896 220.354,140.167 
		211.292,123.417 	"/>
</g>
<g id="Layer_1">
	<g>
		<rect fill="none" width="480" height="486.521"/>
		<path d="M240,432.18H118.5c-6.001-15.623-9-31.952-9-48.984c0-28.905,7.875-54.844,23.625-77.813s36-39.375,60.75-49.219
			c-10.652-5.156-19.315-12.928-25.988-23.32c-6.676-10.39-10.012-22.148-10.012-35.273c0-16.406,5.249-30.623,15.75-42.656
			c10.498-12.03,23.4-18.984,38.7-20.859c-12.15-9.529-18.225-22.108-18.225-37.734c0-13.125,4.461-24.375,13.388-33.75
			c8.923-9.375,19.761-14.063,32.513-14.063c12.6,0,23.399,4.688,32.399,14.063s13.5,20.625,13.5,33.75
			c0,15.626-6.074,28.206-18.225,37.734c15.3,1.875,28.199,8.829,38.7,20.859c10.498,12.034,15.75,26.25,15.75,42.656
			c0,13.125-3.414,24.884-10.237,35.273c-6.827,10.393-15.49,18.164-25.988,23.32c24.751,9.844,45.001,26.25,60.751,49.219
			s23.625,48.907,23.625,77.813c0,16.875-2.926,33.204-8.775,48.984H240z M240,416.242h110.475
			c3.15-11.25,4.726-22.266,4.726-33.047c0-24.375-6.49-46.483-19.463-66.328c-12.976-19.842-29.665-34.453-50.063-43.828
			c-9.9-0.78-14.85-6.405-14.85-16.875c0-8.28,5.023-14.374,15.074-18.281c13.95-10.155,20.926-23.591,20.926-40.313
			c0-12.03-3.902-22.577-11.7-31.641c-7.802-9.06-17.251-14.297-28.351-15.703c-9-0.78-13.5-6.094-13.5-15.938
			c0-4.373,1.649-8.438,4.95-12.188c8.101-6.563,12.15-15.154,12.15-25.781c0-8.749-3.003-16.249-9-22.5
			c-6.001-6.248-13.128-9.375-21.375-9.375c-8.55,0-15.789,3.127-21.713,9.375c-5.927,6.251-8.887,13.751-8.887,22.5
			c0,10.47,4.05,19.065,12.15,25.781c3.298,3.438,4.95,7.5,4.95,12.188c0,9.844-4.426,15.157-13.275,15.938
			c-11.25,1.406-20.738,6.643-28.462,15.703c-7.727,9.063-11.587,19.61-11.587,31.641c0,16.721,6.975,30.157,20.925,40.313
			c10.048,4.064,15.075,10.158,15.075,18.281c0,10.47-5.027,16.095-15.075,16.875c-20.401,9.375-37.051,23.986-49.95,43.828
			c-12.902,19.845-19.35,41.953-19.35,66.328c0,11.564,1.575,22.58,4.725,33.047H240z"/>
	</g>
	<g>
	</g>
	<g>
	</g>
	<g>
	</g>
	<g>
	</g>
	<g>
	</g>
	<g>
	</g>
	<g>
	</g>
	<g>
	</g>
	<g>
	</g>
	<g>
	</g>
	<g>
	</g>
	<g>
	</g>
	<g>
	</g>
	<g>
	</g>
	<g>
	</g>
</g>
</svg>
