<?xml version="1.0" encoding="utf-8"?>
<!-- Generator: Adobe Illustrator 16.0.0, SVG Export Plug-In . SVG Version: 6.00 Build 0)  -->
<!DOCTYPE svg PUBLIC "-//W3C//DTD SVG 1.1//EN" "http://www.w3.org/Graphics/SVG/1.1/DTD/svg11.dtd">
<svg version="1.1" xmlns="http://www.w3.org/2000/svg" xmlns:xlink="http://www.w3.org/1999/xlink" x="0px" y="0px" width="480px"
	 height="480px" viewBox="0 0 480 480" enable-background="new 0 0 480 480" xml:space="preserve">
<g id="Layer_2">
	<polyline fill="#FFFFFF" stroke="#000000" stroke-miterlimit="10" points="201.719,141.281 232.911,111.558 234.966,100.602 
		221.931,90.176 218.278,70.974 234.938,57.5 256,57.5 265.146,68.813 256.292,94.333 252.125,99.391 253.688,117.25 
		292.75,151.625 324.521,178.708 332.854,221.417 327.125,254.229 300.042,280.271 289.625,285.479 310.979,341.729 261.5,356.313 
		275.042,376.625 300.563,388.604 325.563,386 363.063,381.833 395.875,383.396 420.354,394.333 407.333,420.375 392.229,414.646 
		348.479,416.729 298.479,422.979 260.979,406.313 247.438,381.833 237.021,378.708 230.771,395.896 191.708,420.896 
		143.271,414.646 94.313,411 73.479,419.854 60.458,391.208 85.458,381.833 122.958,379.229 143.271,384.958 176.604,386.521 
		194.313,382.354 212.542,371.938 216.188,356.833 171.396,343.292 189.625,290.688 177.646,275.063 151.083,247.979 
		152.125,192.25 171.396,168.292 201.719,141.281 	"/>
</g>
<g id="Layer_1">
	<g>
		<rect fill="none" width="480.771" height="485.479"/>
		<path d="M240.385,388.352c-2.19,8.906-4.845,15.08-7.969,18.516c-3.127,3.438-7.266,7.031-12.422,10.781
			c-5.625,3.907-12.268,7.229-19.922,9.961c-7.657,2.735-16.172,3.398-25.547,1.992l-65.859-9.141c-2.659-0.312-5.039-0.312-7.148,0
			c-2.109,0.314-4.102,0.469-5.977,0.469c-3.281,0-7.463,0.743-12.539,2.227c-5.079,1.486-9.023,3.633-11.836,6.445l-22.734-37.266
			c2.813-3.124,5.31-5.311,7.5-6.563c2.187-1.249,4.765-2.578,7.734-3.984c9.06-4.219,18.75-6.797,29.063-7.734
			c4.373-0.312,8.672-0.389,12.891-0.234c4.219,0.157,8.591,0,13.125-0.469c8.438,1.406,16.912,2.695,25.43,3.867
			c8.515,1.172,17.069,2.384,25.664,3.633c9.375,0,15.703-0.938,18.984-2.813c1.718-0.938,4.453-2.655,8.203-5.156
			c3.75-2.498,7.5-6.171,11.25-11.016c-8.284-0.938-16.721-2.538-25.313-4.805c-8.595-2.264-16.172-4.647-22.734-7.148
			l24.375-60.469c-12.188-7.031-20.706-12.693-25.547-16.992c-4.845-4.296-8.672-9.258-11.484-14.883
			c-4.065-7.186-6.68-14.14-7.852-20.859c-1.172-6.716-1.681-12.733-1.523-18.047c0.154-9.375,2.38-19.724,6.68-31.055
			c4.296-11.327,12.382-21.445,24.258-30.352c9.844-7.5,19.453-15.234,28.828-23.203s18.669-17.263,27.891-27.891
			c-11.565-5.937-17.344-15.388-17.344-28.359c0-8.749,3.083-16.249,9.258-22.5c6.171-6.248,13.711-9.375,22.617-9.375
			c8.75,0,16.25,3.127,22.5,9.375c6.248,6.251,9.375,13.751,9.375,22.5c0,12.813-5.781,22.266-17.344,28.359
			c9.061,10.627,18.242,19.922,27.539,27.891c9.295,7.969,19.021,15.703,29.18,23.203c11.719,8.906,19.688,19.024,23.906,30.352
			c4.219,11.331,6.482,21.68,6.797,31.055c0,5.313-0.549,11.331-1.641,18.047c-1.094,6.72-3.596,13.674-7.5,20.859
			c-3.127,5.625-7.07,10.587-11.836,14.883c-4.768,4.299-13.164,9.961-25.195,16.992l24.375,60.469
			c-6.877,2.501-14.611,4.885-23.203,7.148c-8.594,2.267-16.875,3.867-24.844,4.805c3.594,4.845,7.266,8.518,11.016,11.016
			c3.75,2.501,6.563,4.219,8.438,5.156c3.281,1.875,9.609,2.813,18.984,2.813c8.438-1.249,16.912-2.461,25.43-3.633
			c8.516-1.172,17.07-2.461,25.664-3.867c4.219,0.469,8.475,0.626,12.773,0.469c4.297-0.154,8.709-0.077,13.242,0.234
			c9.998,0.938,19.688,3.516,29.063,7.734c2.813,1.406,5.352,2.735,7.617,3.984c2.264,1.252,4.805,3.438,7.617,6.563l-22.969,37.266
			c-2.813-2.813-6.76-4.959-11.836-6.445c-5.078-1.483-9.18-2.227-12.305-2.227c-2.031,0-4.102-0.154-6.211-0.469
			c-2.109-0.312-4.492-0.312-7.148,0l-65.625,9.141c-9.375,1.406-18.086,0.783-26.133-1.875
			c-8.049-2.655-14.648-6.171-19.805-10.547c-5.156-4.219-9.258-7.852-12.305-10.898S242.414,397.258,240.385,388.352z
			 M302.729,343.82l-9.844-23.906c-15.938-3.436-33.438-5.156-52.5-5.156c-18.907,0-36.251,1.721-52.031,5.156l-9.844,23.672
			c19.373-4.842,39.998-7.266,61.875-7.266C261.947,336.32,282.727,338.821,302.729,343.82z M283.041,295.539l-6.797-16.406v-6.328
			c-11.875-1.718-23.828-2.578-35.859-2.578c-11.719,0-23.595,0.86-35.625,2.578l-0.234,6.328l-6.328,16.406
			c13.279-2.344,27.341-3.516,42.188-3.516C255.385,292.023,269.602,293.195,283.041,295.539z M231.713,213.977v19.922
			c0,5.782,2.89,8.672,8.672,8.672c5.779,0,8.671-2.89,8.671-8.672v-20.156h21.094c5.469,0,8.203-2.813,8.203-8.438
			s-2.734-8.438-8.203-8.438h-21.094v-21.094c0-5.779-2.893-8.672-8.671-8.672c-5.782,0-8.672,2.893-8.672,8.672v21.094h-20.625
			c-5.471,0-8.203,2.813-8.203,8.438s2.732,8.438,8.203,8.438L231.713,213.977z M226.557,384.133
			c3.593-7.654,5.391-15.077,5.391-22.266h-7.5c-6.094,10.001-12.422,17.424-18.984,22.266H226.557z M274.838,384.133
			c-6.25-4.688-12.502-12.107-18.75-22.266h-7.5c0,7.657,1.795,15.08,5.391,22.266H274.838z"/>
	</g>
	<g>
	</g>
	<g>
	</g>
	<g>
	</g>
	<g>
	</g>
	<g>
	</g>
	<g>
	</g>
	<g>
	</g>
	<g>
	</g>
	<g>
	</g>
	<g>
	</g>
	<g>
	</g>
	<g>
	</g>
	<g>
	</g>
	<g>
	</g>
	<g>
	</g>
</g>
</svg>
