<?xml version="1.0" encoding="utf-8"?>
<!-- Generator: Adobe Illustrator 16.0.0, SVG Export Plug-In . SVG Version: 6.00 Build 0)  -->
<!DOCTYPE svg PUBLIC "-//W3C//DTD SVG 1.1//EN" "http://www.w3.org/Graphics/SVG/1.1/DTD/svg11.dtd">
<svg version="1.1" xmlns="http://www.w3.org/2000/svg" xmlns:xlink="http://www.w3.org/1999/xlink" x="0px" y="0px" width="480px"
	 height="480px" viewBox="0 0 480 480" enable-background="new 0 0 480 480" xml:space="preserve">
<g id="Layer_2">
	<polyline fill="#FFFFFF" points="205.458,168.604 209.521,137.198 231.864,123.578 257.338,128.227 275,145.896 275,177 
		287.021,179.75 332.854,158.396 377.646,159.438 425.042,185.479 433.375,231.833 422.958,262.042 392.75,293.292 377.125,309.438 
		369.313,326.104 366.708,356.833 375.042,397.979 381.813,413.208 300.042,430 213,430 148.479,426.625 110.458,413.604 
		106.813,402.146 117.229,373.5 115.146,346.417 106.813,309.958 81.292,290.688 49.521,242.74 52.646,195.375 69.833,171.938 
		90.667,161 124,156.833 154.208,162.563 183.896,172.458 210.458,184.958 205.458,168.604 	"/>
</g>
<g id="Layer_1">
	<g>
		<rect fill="none" width="480.771" height="485.479"/>
		<path d="M108.901,357.883l-7.734-43.828c-0.157,0-0.392-0.312-0.703-0.938c-0.784-1.092-3.01-2.538-6.68-4.336
			c-3.673-1.795-7.932-4.882-12.773-9.258c-6.877-5.779-12.228-10.467-16.055-14.063c-3.831-3.593-7.306-7.5-10.43-11.719
			c-9.532-13.125-14.846-28.982-15.938-47.578c-1.563-17.966,5.702-35.859,21.797-53.672c16.249-17.813,38.203-26.169,65.859-25.078
			c10.313,0.626,22.419,3.127,36.328,7.5c4.53,1.875,9.177,3.713,13.945,5.508c4.765,1.798,9.492,3.633,14.18,5.508
			c2.498,1.252,4.688,2.501,6.563,3.75c-0.784-3.281-1.172-6.563-1.172-9.844c0-12.188,4.336-22.577,13.008-31.172
			c8.672-8.591,19.102-12.968,31.289-13.125c12.187,0,22.578,4.336,31.171,13.008c8.592,8.672,12.891,19.024,12.891,31.055
			c0,2.501-0.314,5.782-0.938,9.844c2.188-1.406,4.297-2.578,6.328-3.516c7.186-3.124,16.641-6.797,28.359-11.016
			c13.438-4.53,25.547-7.108,36.328-7.734c27.656-1.249,49.531,7.112,65.625,25.078c15.781,17.813,23.123,35.706,22.031,53.672
			c-1.252,18.596-6.643,34.453-16.172,47.578c-3.127,4.219-6.643,8.166-10.547,11.836c-3.906,3.673-9.141,8.32-15.703,13.945
			c-5.156,4.376-9.531,7.463-13.125,9.258c-3.596,1.798-5.705,3.244-6.328,4.336c-0.156,0.314-0.314,0.549-0.469,0.703
			c-0.156,0.157-0.234,0.314-0.234,0.469l-7.5,44.063l15.469,57.891c-7.814,7.031-25.313,12.813-52.5,17.344
			c-27.188,4.533-58.594,6.797-94.218,6.797c-36.251,0-68.126-2.381-95.625-7.148c-27.502-4.765-44.766-10.741-51.797-17.93
			L108.901,357.883z M231.948,295.539c0-6.248-0.157-14.883-0.469-25.898c-0.315-11.016-1.487-20.193-3.516-27.539
			c-6.409-20.937-16.095-37.812-29.063-50.625c-6.72-6.563-17.032-12.656-30.938-18.281c-15.938-6.248-31.018-9.375-45.234-9.375
			c-24.69,0-42.971,8.829-54.844,26.484c-6.72,9.375-10.078,21.094-10.078,35.156c0,15.315,3.75,27.891,11.25,37.734
			c3.904,5.625,11.404,12.579,22.5,20.859c11.093,8.283,20.468,15.938,28.125,22.969c13.594-2.967,28.945-5.545,46.055-7.734
			C182.846,297.103,204.914,295.854,231.948,295.539z M214.135,277.492c-19.534,0.314-37.383,1.329-53.555,3.047
			c-16.172,1.721-28.711,4.142-37.617,7.266c-4.688-5.779-10.118-11.602-16.289-17.461c-6.174-5.859-11.602-11.367-16.289-16.523
			c-7.815-7.969-11.719-16.718-11.719-26.25c0-11.719,1.952-20.31,5.859-25.781c4.219-6.248,10.701-10.898,19.453-13.945
			c8.749-3.047,17.578-4.57,26.484-4.57c11.25,0,22.031,2.501,32.344,7.5c10.155,5.313,16.875,9.532,20.156,12.656
			c10.624,10.781,18.904,22.5,24.844,35.156c2.029,4.688,3.552,11.213,4.57,19.57C213.392,266.517,213.978,272.962,214.135,277.492z
			 M362.26,406.398l-7.031-27.656c-30.469-7.031-68.752-10.547-114.843-10.547c-45.626,0-83.752,3.516-114.375,10.547l-7.5,27.891
			c29.685-9.061,70.39-13.594,122.109-13.594c24.843,0,47.89,1.252,69.14,3.75C331.008,399.29,348.51,402.494,362.26,406.398z
			 M356.166,336.32c-28.75-7.969-67.031-11.953-114.844-11.953c-48.127,0-86.875,4.064-116.25,12.188l3.516,23.672
			c29.531-7.654,67.108-11.484,112.734-11.484c45.469,0,82.5,3.75,111.094,11.25L356.166,336.32z M248.588,114.836h-16.64V84.133
			h-19.453c-5.313,0-7.969-2.578-7.969-7.734v-0.234c0-5.156,2.655-7.734,7.969-7.734h19.453V48.508
			c0-5.468,2.813-8.203,8.438-8.203c5.468,0,8.203,2.735,8.203,8.203V68.43h20.156c5.156,0,7.734,2.578,7.734,7.734v0.234
			c0,5.156-2.578,7.734-7.734,7.734l-19.922,0.234L248.588,114.836z M240.385,236.711c1.091-4.373,2.029-7.419,2.812-9.141
			c1.561-6.094,3.359-11.25,5.391-15.469c0.938-2.655,2.305-5.742,4.102-9.258c1.795-3.516,3.711-7.537,5.742-12.07
			c1.25-2.655,2.578-5.896,3.984-9.727c1.406-3.827,2.813-7.617,4.219-11.367c1.25-3.124,1.875-6.482,1.875-10.078
			c0-7.654-2.734-14.18-8.203-19.57c-5.471-5.391-12.109-8.086-19.921-8.086c-18.596,0-27.891,9.298-27.891,27.891
			c0,3.596,0.623,6.954,1.875,10.078c3.435,10.159,6.094,17.19,7.969,21.094c2.029,4.534,3.904,8.555,5.625,12.07
			c1.718,3.516,3.201,6.603,4.453,9.258c2.029,5.156,3.75,10.313,5.156,15.469C237.884,228.742,238.822,231.712,240.385,236.711z
			 M240.385,196.633c-0.315-1.56-0.703-2.89-1.172-3.984c-0.938-3.124-1.721-5.391-2.344-6.797
			c-0.469-1.091-1.095-2.461-1.875-4.102c-0.784-1.641-1.563-3.398-2.344-5.273c-0.469-1.091-1.055-2.538-1.758-4.336
			c-0.703-1.794-1.289-3.476-1.758-5.039c-0.469-1.406-0.703-2.89-0.703-4.453c0-8.28,3.984-12.422,11.953-12.422
			c8.281,0,12.421,4.065,12.421,12.188c0,2.032-0.314,3.516-0.938,4.453c-2.189,5.94-3.361,9.141-3.516,9.609
			c-2.344,4.688-3.83,7.734-4.453,9.141c-1.094,2.501-1.797,4.768-2.109,6.797c-0.469,0.938-0.783,1.758-0.937,2.461
			C240.697,195.578,240.539,196.164,240.385,196.633z M248.822,295.773c26.873,0.469,48.904,1.798,66.094,3.984
			c17.188,2.189,32.656,4.768,46.406,7.734c8.592-8.438,18.125-16.483,28.594-24.141c10.467-7.654,17.813-14.217,22.031-19.688
			c7.5-10.155,11.25-22.812,11.25-37.969c0-13.905-3.361-25.547-10.078-34.922c-12.033-17.655-30.391-26.484-55.078-26.484
			c-14.377,0-29.377,3.127-45,9.375c-14.219,5.625-24.531,11.719-30.938,18.281c-13.281,12.813-22.969,29.688-29.063,50.625
			c-2.344,7.188-3.633,16.329-3.867,27.422C248.939,281.088,248.822,289.68,248.822,295.773z M265.932,277.492
			c0-4.53,0.506-10.976,1.523-19.336c1.016-8.357,2.615-14.883,4.805-19.57c5.779-12.656,14.063-24.375,24.844-35.156
			c3.125-3.124,9.844-7.343,20.156-12.656c10.156-4.999,21.014-7.5,32.578-7.5c8.75,0,17.461,1.523,26.133,4.57
			s15.195,7.698,19.57,13.945c3.904,5.313,5.859,13.909,5.859,25.781c0,9.375-3.83,18.127-11.484,26.25
			c-5.002,5.156-10.393,10.353-16.172,15.586c-5.781,5.236-11.33,11.367-16.641,18.398c-9.063-3.124-21.68-5.545-37.852-7.266
			C303.08,278.821,285.305,277.807,265.932,277.492z"/>
	</g>
	<g>
	</g>
	<g>
	</g>
	<g>
	</g>
	<g>
	</g>
	<g>
	</g>
	<g>
	</g>
	<g>
	</g>
	<g>
	</g>
	<g>
	</g>
	<g>
	</g>
	<g>
	</g>
	<g>
	</g>
	<g>
	</g>
	<g>
	</g>
	<g>
	</g>
</g>
</svg>
