<?xml version="1.0" encoding="utf-8"?>
<!-- Generator: Adobe Illustrator 16.0.0, SVG Export Plug-In . SVG Version: 6.00 Build 0)  -->
<!DOCTYPE svg PUBLIC "-//W3C//DTD SVG 1.1//EN" "http://www.w3.org/Graphics/SVG/1.1/DTD/svg11.dtd">
<svg version="1.1" xmlns="http://www.w3.org/2000/svg" xmlns:xlink="http://www.w3.org/1999/xlink" x="0px" y="0px" width="480px"
	 height="480px" viewBox="0 0 480 480" enable-background="new 0 0 480 480" xml:space="preserve">
<g id="Layer_2">
	<polyline fill="#FFFFFF" stroke="#000000" stroke-miterlimit="10" points="106.521,157.573 118.604,131.943 135.323,111.576 
		123.891,52.173 167.653,74.555 185.89,100.069 200.997,94.337 211.936,71.939 220.791,56.313 237.458,67.25 251.521,95.896 
		290.063,94.333 323.917,113.604 385.375,170.375 410.896,237.563 429.125,333.614 423.917,425.5 161,425.5 169.75,379.75 
		198.917,338.083 239.542,301.104 252.042,259.438 247.875,238.837 217.667,253.188 180.688,270.896 147.875,301.104 
		130.167,338.604 112.458,341.208 95.792,325.063 70.792,321.938 52.563,285.479 61.417,247.458 91.625,205.271 106.521,157.573 	
		"/>
</g>
<g id="Layer_1">
	<g>
		<rect fill="none" width="480.771" height="485.479"/>
		<path d="M253.275,82.492c24.529,1.563,47.264,7.892,68.203,18.984c20.938,11.096,38.75,25.313,53.438,42.656
			c10.313,12.188,20.039,26.876,29.18,44.063c9.141,17.19,16.443,35.391,21.914,54.609c6.248,22.346,10.195,45.82,11.836,70.43
			s2.461,47.384,2.461,68.32v51.094c-48.596,0-92.266,0-131.016,0H152.026c-1.406,0-2.073-3.827-1.992-11.484
			c0.077-7.654,0.586-13.828,1.523-18.516c0.623-3.75,2.109-9.061,4.453-15.938c2.344-6.874,6.248-15.234,11.719-25.078
			c2.498-4.999,8.438-12.305,17.813-21.914s20.156-20.742,32.344-33.398c7.031-7.186,12.539-16.249,16.523-27.188
			c3.984-10.936,5.662-20.859,5.039-29.766c-5.782,4.688-12.11,8.518-18.984,11.484c-33.127,11.876-57.11,29.063-71.953,51.563
			c-1.095,1.406-4.61,7.734-10.547,18.984c-3.127,5.939-5.782,10.001-7.969,12.188c-2.97,2.97-7.266,4.61-12.891,4.922
			c-8.752,0.469-15.549-3.75-20.391-12.656c-6.563,1.875-12.422,2.658-17.578,2.344c-8.752-3.281-15.081-6.797-18.984-10.547
			c-7.969-7.969-13.165-15.938-15.586-23.906c-2.424-7.969-3.633-16.561-3.633-25.781c0-13.125,8.123-30.469,24.375-52.031
			c19.062-24.844,29.216-43.748,30.469-56.719c0-5.625,0.546-11.953,1.641-18.984c0.938-4.841,2.89-9.529,5.859-14.063
			c2.029-3.124,3.398-5.273,4.102-6.445s1.992-2.93,3.867-5.273c1.406-1.875,2.578-3.318,3.516-4.336
			c0.938-1.015,2.109-2.38,3.516-4.102c1.718-2.029,3.904-4.373,6.563-7.031c-8.284-22.812-11.642-46.326-10.078-70.547
			c31.091,11.096,57.188,28.517,78.281,52.266c5.156-17.655,15.312-31.952,30.469-42.891
			C236.009,56.557,245.93,68.118,253.275,82.492z M95.073,278.43c4.53-3.124,4.999-6.874,1.406-11.25
			c-3.75-3.593-7.892-3.904-12.422-0.938c-9.532,6.251-14.612,14.454-15.234,24.609c0.154,5.156,3.201,7.58,9.141,7.266
			c5.625-0.469,8.357-3.358,8.203-8.672C87.416,284.446,90.385,280.773,95.073,278.43z M115.229,320.148
			c0.623-1.406,1.641-3.516,3.047-6.328c2.655-6.563,3.984-10.467,3.984-11.719c-0.315-4.373-2.578-6.563-6.797-6.563
			c-3.127,0-6.797,4.453-11.016,13.359c-0.626,1.252-1.563,2.344-2.813,3.281c-4.219,4.376-3.596,8.049,1.875,11.016
			C108.509,326.165,112.417,325.15,115.229,320.148z M154.135,161.711l5.156-2.578c4.688-1.875,6.171-5.31,4.453-10.313
			c-1.875-4.688-5.471-6.248-10.781-4.688c-18.438,6.72-31.172,19.065-38.203,37.031c-1.095,5.156,0.78,8.672,5.625,10.547
			c4.841,1.563,8.123-0.154,9.844-5.156c1.249-2.655,2.187-4.373,2.813-5.156c1.718,1.406,3.984,2.344,6.797,2.813
			c9.529,1.563,15.077-2.655,16.641-12.656C156.948,168.12,156.164,164.838,154.135,161.711z M192.338,118.82
			c-0.784-5.625-0.626-11.719,0.469-18.281c-9.375,1.875-18.204,6.251-26.484,13.125c-5.002,2.659-6.174,6.328-3.516,11.016
			c2.655,4.845,6.328,5.625,11.016,2.344c3.281-1.718,6.288-3.318,9.023-4.805C185.578,120.735,188.742,119.604,192.338,118.82z
			 M253.51,233.195c10.936-14.374,16.326-30.388,16.172-48.047c-0.625-5.156-3.596-7.734-8.906-7.734c-7.188,0-10,2.659-8.438,7.969
			c0.469,8.595-0.391,15.703-2.578,21.328c-3.596,8.906-7.58,15.549-11.953,19.922c-2.344,4.688-0.938,8.126,4.218,10.313
			C247.025,239.289,250.852,238.04,253.51,233.195z M411.947,416.008c-0.156,0,0-4.256,0.469-12.773
			c0.469-8.515,0.703-17.695,0.703-27.539c0.154-19.53,0.154-39.727,0-60.586c-0.156-20.859-2.969-41.679-8.438-62.461
			c-5.313-19.999-11.172-37.068-17.578-51.211c-6.408-14.14-13.359-26.367-20.859-36.68c-11.25-16.875-26.564-31.172-45.938-42.891
			c-19.375-11.719-39.609-19.373-60.703-22.969c0.623,3.596,0.82,7.266,0.586,11.016s-0.197,7.346,0.117,10.781
			c15.154,5.156,29.451,11.565,42.891,19.219c13.438,7.657,23.281,15.938,29.531,24.844c7.5,10.313,14.451,22.54,20.859,36.68
			c6.406,14.143,12.266,31.212,17.578,51.211c5.311,20.782,8.047,41.602,8.203,62.461c0.154,20.859,0.234,41.056,0.234,60.586
			c0,9.844-0.234,19.024-0.703,27.539c-0.469,8.518-0.469,12.773,0,12.773H411.947z"/>
	</g>
	<g>
	</g>
	<g>
	</g>
	<g>
	</g>
	<g>
	</g>
	<g>
	</g>
	<g>
	</g>
	<g>
	</g>
	<g>
	</g>
	<g>
	</g>
	<g>
	</g>
	<g>
	</g>
	<g>
	</g>
	<g>
	</g>
	<g>
	</g>
	<g>
	</g>
</g>
</svg>
