<?xml version="1.0" encoding="utf-8"?>
<!-- Generator: Adobe Illustrator 16.0.0, SVG Export Plug-In . SVG Version: 6.00 Build 0)  -->
<!DOCTYPE svg PUBLIC "-//W3C//DTD SVG 1.1//EN" "http://www.w3.org/Graphics/SVG/1.1/DTD/svg11.dtd">
<svg version="1.1" xmlns="http://www.w3.org/2000/svg" xmlns:xlink="http://www.w3.org/1999/xlink" x="0px" y="0px" width="480px"
	 height="480px" viewBox="0 0 480 480" enable-background="new 0 0 480 480" xml:space="preserve">
<g id="Layer_2" display="none">
	<polyline display="inline" fill="#FFFFFF" stroke="#000000" stroke-miterlimit="10" points="195.458,250.563 164.156,206.823 
		167.255,168.286 187.555,152.664 209.423,143.811 217.753,134.958 208.897,118.291 201.605,87.042 217.75,61.521 242.75,54.229 
		271.396,70.375 281.813,100.583 269.833,127.146 264.104,137.563 284.417,146.938 305.25,164.125 319.313,206.313 304.208,235.479 
		284.938,250.583 281.813,263.083 327.646,291.208 362.021,339.646 370.354,381.291 360.979,424.5 119,424.5 110.979,365.688 
		129.729,320.375 148.479,292.25 178.167,271.938 197.958,262.563 195.458,250.563 	"/>
</g>
<g id="Layer_1">
	<g>
		<rect fill="none" width="480.771" height="485.479"/>
		<path d="M240.385,432.18H113.823c-6.251-15.623-9.375-31.952-9.375-48.984c0-28.905,8.203-54.844,24.609-77.813
			s37.5-39.375,63.281-49.219c-11.096-5.156-20.12-12.928-27.07-23.32c-6.954-10.39-10.43-22.148-10.43-35.273
			c0-16.406,5.468-30.623,16.406-42.656c10.935-12.03,24.375-18.984,40.313-20.859c-12.656-9.529-18.984-22.108-18.984-37.734
			c0-13.125,4.647-24.375,13.945-33.75c9.294-9.375,20.585-14.063,33.867-14.063c13.125,0,24.375,4.688,33.75,14.063
			s14.063,20.625,14.063,33.75c0,15.626-6.328,28.206-18.984,37.734c15.938,1.875,29.375,8.829,40.313,20.859
			c10.936,12.034,16.406,26.25,16.406,42.656c0,13.125-3.555,24.884-10.664,35.273c-7.111,10.393-16.135,18.164-27.07,23.32
			c25.781,9.844,46.875,26.25,63.281,49.219s24.609,48.907,24.609,77.813c0,16.875-3.047,33.204-9.141,48.984H240.385z"/>
	</g>
	<g>
	</g>
	<g>
	</g>
	<g>
	</g>
	<g>
	</g>
	<g>
	</g>
	<g>
	</g>
	<g>
	</g>
	<g>
	</g>
	<g>
	</g>
	<g>
	</g>
	<g>
	</g>
	<g>
	</g>
	<g>
	</g>
	<g>
	</g>
	<g>
	</g>
</g>
</svg>
