<?xml version="1.0" encoding="utf-8"?>
<!-- Generator: Adobe Illustrator 16.0.0, SVG Export Plug-In . SVG Version: 6.00 Build 0)  -->
<!DOCTYPE svg PUBLIC "-//W3C//DTD SVG 1.1//EN" "http://www.w3.org/Graphics/SVG/1.1/DTD/svg11.dtd">
<svg version="1.1" xmlns="http://www.w3.org/2000/svg" xmlns:xlink="http://www.w3.org/1999/xlink" x="0px" y="0px" width="480px"
	 height="480px" viewBox="0 0 480 480" enable-background="new 0 0 480 480" xml:space="preserve">
<g id="Layer_2">
	<polyline fill="#FFFFFF" points="95.458,282.479 240.052,255.854 378.193,286.552 368.283,322.995 364.111,356.32 372.961,399.024 
		371.919,413.606 256.293,424.021 155.771,416.73 111.083,410.479 119,359.958 119,330 95.458,282.479 	"/>
</g>
<g id="Layer_1">
	<g>
		<rect fill="none" width="480.771" height="485.479"/>
		<path d="M55.698,137.805c-8.906,0-16.446-3.083-22.617-9.258c-6.174-6.171-9.258-13.711-9.258-22.617
			c0-8.749,3.083-16.289,9.258-22.617c6.171-6.328,13.711-9.492,22.617-9.492s16.483,3.164,22.734,9.492
			c6.248,6.328,9.375,13.868,9.375,22.617c0,8.906-3.127,16.446-9.375,22.617C72.181,134.721,64.604,137.805,55.698,137.805z
			 M384.76,413.898c-7.656,6.72-24.844,12.345-51.563,16.875c-26.719,4.533-57.502,6.797-92.343,6.797
			c-35.471,0-66.643-2.344-93.516-7.031c-26.876-4.688-43.828-10.547-50.859-17.578l14.766-56.25l-6.563-36.797l-20.625-35.859
			L64.135,138.273l11.484-4.453l64.219,108.281l1.406-128.906l15.938-2.813l48.984,129.609l26.25-139.453h16.171l26.25,138.984
			l48.516-129.141l16.172,2.813l1.406,128.906l64.453-108.516l11.016,5.156L396.947,283.82l-20.859,35.859l-6.563,37.266
			L384.76,413.898z M372.572,294.367c-12.971-4.688-31.211-8.555-54.727-11.602c-23.518-3.047-49.492-4.57-77.929-4.57
			c-27.813,0-53.284,1.446-76.406,4.336c-23.126,2.893-41.331,6.68-54.609,11.367l11.719,21.328
			c13.125-3.904,30.154-6.717,51.094-8.438c20.937-1.718,43.828-2.578,68.672-2.578c24.843,0,47.812,0.86,68.906,2.578
			c21.094,1.721,38.203,4.61,51.328,8.672L372.572,294.367z M141.948,112.023c-8.906,0-16.487-3.083-22.734-9.258
			c-6.251-6.171-9.375-13.711-9.375-22.617c0-8.749,3.124-16.249,9.375-22.5c6.248-6.248,13.828-9.375,22.734-9.375
			c8.749,0,16.249,3.127,22.5,9.375c6.248,6.251,9.375,13.751,9.375,22.5c0,8.906-3.127,16.446-9.375,22.617
			C158.197,108.94,150.697,112.023,141.948,112.023z M362.26,406.398l-7.031-27.656c-30.469-7.031-68.752-10.547-114.843-10.547
			c-45.626,0-83.752,3.516-114.375,10.547l-7.5,27.891c29.685-9.061,70.39-13.594,122.109-13.594c24.843,0,47.89,1.252,69.14,3.75
			C331.008,399.29,348.51,402.494,362.26,406.398z M356.166,336.32c-28.75-7.969-67.031-11.953-114.844-11.953
			c-48.127,0-86.875,4.064-116.25,12.188l3.516,23.672c29.531-7.654,67.108-11.484,112.734-11.484c45.469,0,82.5,3.75,111.094,11.25
			L356.166,336.32z M240.385,100.305c-8.906,0-16.446-3.124-22.617-9.375c-6.174-6.248-9.258-13.828-9.258-22.734
			c0-8.749,3.083-16.249,9.258-22.5c6.171-6.248,13.711-9.375,22.617-9.375c8.75,0,16.289,3.127,22.617,9.375
			c6.328,6.251,9.492,13.751,9.492,22.5c0,8.906-3.164,16.487-9.492,22.734C256.674,97.181,249.135,100.305,240.385,100.305z
			 M338.822,112.023c-8.906,0-16.445-3.083-22.617-9.258c-6.174-6.171-9.258-13.711-9.258-22.617c0-8.749,3.084-16.249,9.258-22.5
			c6.172-6.248,13.711-9.375,22.617-9.375s16.484,3.127,22.734,9.375c6.248,6.251,9.375,13.751,9.375,22.5
			c0,8.906-3.127,16.446-9.375,22.617C355.307,108.94,347.729,112.023,338.822,112.023z M425.541,137.805
			c-8.906,0-16.486-3.083-22.734-9.258c-6.25-6.171-9.375-13.711-9.375-22.617c0-8.749,3.125-16.289,9.375-22.617
			c6.248-6.328,13.828-9.492,22.734-9.492c8.75,0,16.25,3.164,22.5,9.492c6.248,6.328,9.375,13.868,9.375,22.617
			c0,8.906-3.127,16.446-9.375,22.617C441.791,134.721,434.291,137.805,425.541,137.805z"/>
	</g>
	<g>
	</g>
	<g>
	</g>
	<g>
	</g>
	<g>
	</g>
	<g>
	</g>
	<g>
	</g>
	<g>
	</g>
	<g>
	</g>
	<g>
	</g>
	<g>
	</g>
	<g>
	</g>
	<g>
	</g>
	<g>
	</g>
	<g>
	</g>
	<g>
	</g>
</g>
</svg>
