<?xml version="1.0" encoding="utf-8"?>
<!-- Generator: Adobe Illustrator 16.0.0, SVG Export Plug-In . SVG Version: 6.00 Build 0)  -->
<!DOCTYPE svg PUBLIC "-//W3C//DTD SVG 1.1//EN" "http://www.w3.org/Graphics/SVG/1.1/DTD/svg11.dtd">
<svg version="1.1" xmlns="http://www.w3.org/2000/svg" xmlns:xlink="http://www.w3.org/1999/xlink" x="0px" y="0px" width="480px"
	 height="480px" viewBox="0 0 480 480" enable-background="new 0 0 480 480" xml:space="preserve">
<g id="Layer_2">
	<polyline fill="#FFFFFF" stroke="#FFFFFF" stroke-miterlimit="10" points="201.719,141.281 232.911,111.558 234.966,100.602 
		221.931,90.176 218.278,70.974 234.938,57.5 256,57.5 265.146,68.813 256.292,94.333 252.125,99.391 253.688,117.25 
		292.75,151.625 324.521,178.708 332.854,221.417 327.125,254.229 300.042,280.271 289.625,285.479 310.979,341.729 261.5,356.313 
		275.042,376.625 300.563,388.604 325.563,386 363.063,381.833 395.875,383.396 420.354,394.333 407.333,420.375 392.229,414.646 
		348.479,416.729 298.479,422.979 260.979,406.313 247.438,381.833 237.021,378.708 230.771,395.896 191.708,420.896 
		143.271,414.646 94.313,411 73.479,419.854 60.458,391.208 85.458,381.833 122.958,379.229 143.271,384.958 176.604,386.521 
		194.313,382.354 212.542,371.938 216.188,356.833 171.396,343.292 189.625,290.688 177.646,275.063 151.083,247.979 
		152.125,192.25 171.396,168.292 201.719,141.281 	"/>
</g>
<g id="Layer_1">
	<g>
		<rect fill="none" width="480.771" height="485.479"/>
		<path d="M240.385,388.352c-2.19,8.906-4.845,15.08-7.969,18.516c-3.127,3.438-7.266,7.031-12.422,10.781
			c-5.625,3.907-12.268,7.229-19.922,9.961c-7.657,2.735-16.172,3.398-25.547,1.992l-65.859-9.141c-2.659-0.312-5.039-0.312-7.148,0
			c-2.109,0.314-4.102,0.469-5.977,0.469c-3.281,0-7.463,0.743-12.539,2.227c-5.079,1.486-9.023,3.633-11.836,6.445l-22.734-37.266
			c2.813-3.124,5.31-5.311,7.5-6.563c2.187-1.249,4.765-2.578,7.734-3.984c9.06-4.219,18.75-6.797,29.063-7.734
			c4.373-0.312,8.672-0.389,12.891-0.234c4.219,0.157,8.591,0,13.125-0.469c8.438,1.406,16.912,2.695,25.43,3.867
			c8.515,1.172,17.069,2.384,25.664,3.633c9.375,0,15.703-0.938,18.984-2.813c1.718-0.938,4.453-2.655,8.203-5.156
			c3.75-2.498,7.5-6.171,11.25-11.016c-8.284-0.938-16.721-2.538-25.313-4.805c-8.595-2.264-16.172-4.647-22.734-7.148
			l24.375-60.469c-12.188-7.031-20.706-12.693-25.547-16.992c-4.845-4.296-8.672-9.258-11.484-14.883
			c-4.065-7.186-6.68-14.14-7.852-20.859c-1.172-6.716-1.681-12.733-1.523-18.047c0.154-9.375,2.38-19.724,6.68-31.055
			c4.296-11.327,12.382-21.445,24.258-30.352c9.844-7.5,19.453-15.234,28.828-23.203s18.669-17.263,27.891-27.891
			c-11.565-5.937-17.344-15.388-17.344-28.359c0-8.749,3.083-16.249,9.258-22.5c6.171-6.248,13.711-9.375,22.617-9.375
			c8.75,0,16.25,3.127,22.5,9.375c6.248,6.251,9.375,13.751,9.375,22.5c0,12.813-5.781,22.266-17.344,28.359
			c9.061,10.627,18.242,19.922,27.539,27.891c9.295,7.969,19.021,15.703,29.18,23.203c11.719,8.906,19.688,19.024,23.906,30.352
			c4.219,11.331,6.482,21.68,6.797,31.055c0,5.313-0.549,11.331-1.641,18.047c-1.094,6.72-3.596,13.674-7.5,20.859
			c-3.127,5.625-7.07,10.587-11.836,14.883c-4.768,4.299-13.164,9.961-25.195,16.992l24.375,60.469
			c-6.877,2.501-14.611,4.885-23.203,7.148c-8.594,2.267-16.875,3.867-24.844,4.805c3.594,4.845,7.266,8.518,11.016,11.016
			c3.75,2.501,6.563,4.219,8.438,5.156c3.281,1.875,9.609,2.813,18.984,2.813c8.438-1.249,16.912-2.461,25.43-3.633
			c8.516-1.172,17.07-2.461,25.664-3.867c4.219,0.469,8.475,0.626,12.773,0.469c4.297-0.154,8.709-0.077,13.242,0.234
			c9.998,0.938,19.688,3.516,29.063,7.734c2.813,1.406,5.352,2.735,7.617,3.984c2.264,1.252,4.805,3.438,7.617,6.563l-22.969,37.266
			c-2.813-2.813-6.76-4.959-11.836-6.445c-5.078-1.483-9.18-2.227-12.305-2.227c-2.031,0-4.102-0.154-6.211-0.469
			c-2.109-0.312-4.492-0.312-7.148,0l-65.625,9.141c-9.375,1.406-18.086,0.783-26.133-1.875
			c-8.049-2.655-14.648-6.171-19.805-10.547c-5.156-4.219-9.258-7.852-12.305-10.898S242.414,397.258,240.385,388.352z
			 M231.948,361.867h-7.5c-8.752,14.063-17.109,22.892-25.078,26.484c-3.75,1.875-7.892,3.596-12.422,5.156
			c-4.534,1.563-9.767,2.344-15.703,2.344c-1.095,0-9.456-1.249-25.078-3.75c-7.5-1.092-13.44-2.264-17.813-3.516
			c-4.376-1.249-7.815-2.029-10.313-2.344c-8.906-1.092-19.299-0.623-31.172,1.406c-7.188,1.252-13.909,3.516-20.156,6.797
			l11.25,18.281c1.875-1.875,4.336-3.084,7.383-3.633c3.047-0.546,5.819-1.132,8.32-1.758c6.563-1.092,12.81-1.249,18.75-0.469
			c2.029,0.469,6.013,1.055,11.953,1.758c5.937,0.703,13.828,1.838,23.672,3.398c11.719,1.721,19.688,2.578,23.906,2.578
			c16.406,0,28.982-3.124,37.734-9.375c5.31-4.062,10.349-9.727,15.117-16.992C229.564,380.969,231.948,372.18,231.948,361.867z
			 M240.385,273.508c15.154,0,29.685,1.172,43.593,3.516c15.313-5.468,26.404-13.982,33.281-25.547
			c5.938-9.998,8.906-21.013,8.906-33.047c0-7.185-1.797-15.117-5.391-23.789c-3.596-8.672-9.455-16.523-17.578-23.555
			c-9.221-7.654-19.299-16.055-30.234-25.195c-10.938-9.141-21.797-19.805-32.578-31.992
			c-10.938,12.188-21.877,22.852-32.813,31.992c-10.938,9.141-20.94,17.542-30,25.195c-8.284,7.031-14.18,14.883-17.695,23.555
			s-5.273,16.604-5.273,23.789c0,12.034,2.89,23.049,8.672,33.047c6.716,11.564,17.89,20.079,33.516,25.547
			C210.539,274.68,225.07,273.508,240.385,273.508z M240.385,348.977c10.625,0,20.976-0.897,31.054-2.695
			c10.078-1.795,19.805-3.944,29.18-6.445c-18.281-4.842-38.359-7.266-60.234-7.266c-22.188,0-42.268,2.424-60.234,7.266
			c9.06,2.501,18.669,4.65,28.828,6.445C219.134,348.079,229.604,348.977,240.385,348.977z M240.385,316.164
			c18.281,0,35.859,1.798,52.734,5.391l-11.25-28.828c-13.75-2.187-27.578-3.281-41.484-3.281c-14.22,0-28.125,1.095-41.719,3.281
			l-11.25,28.828C204.134,317.962,221.789,316.164,240.385,316.164z M231.948,213.508l-19.453-0.234
			c-5.313,0-7.969-2.655-7.969-7.969c0-5.31,2.655-7.969,7.969-7.969h19.453V177.18c0-5.468,2.813-8.203,8.438-8.203
			c5.468,0,8.203,2.735,8.203,8.203v20.156h20.156c5.156,0,7.734,2.659,7.734,7.969c0,5.313-2.578,7.969-7.734,7.969h-20.156v19.219
			c0,5.625-2.734,8.438-8.203,8.438c-5.625,0-8.438-2.813-8.438-8.438V213.508z M240.385,93.742c10.625,0,15.937-5.31,15.937-15.938
			c0-10.624-5.313-15.938-15.937-15.938c-10.627,0-15.938,5.313-15.938,15.938C224.448,88.432,229.758,93.742,240.385,93.742z
			 M248.588,361.867c0,10.313,2.381,19.102,7.148,26.367c4.766,7.266,9.881,12.931,15.352,16.992
			c8.592,6.251,21.172,9.375,37.734,9.375c4.063,0,12.031-0.857,23.906-2.578c9.688-1.561,17.498-2.695,23.438-3.398
			c5.938-0.703,9.922-1.289,11.953-1.758c5.938-0.78,12.188-0.623,18.75,0.469c2.498,0.626,5.273,1.212,8.32,1.758
			c3.047,0.549,5.586,1.758,7.617,3.633l11.25-18.281c-6.408-3.281-13.205-5.545-20.391-6.797
			c-11.875-2.029-22.266-2.498-31.172-1.406c-2.658,0.314-6.133,1.095-10.43,2.344c-4.299,1.252-10.117,2.424-17.461,3.516
			c-15.783,2.501-24.141,3.75-25.078,3.75c-6.094,0-11.406-0.78-15.938-2.344c-4.533-1.561-8.594-3.281-12.188-5.156
			c-8.283-3.75-16.721-12.576-25.313-26.484H248.588z"/>
	</g>
	<g>
	</g>
	<g>
	</g>
	<g>
	</g>
	<g>
	</g>
	<g>
	</g>
	<g>
	</g>
	<g>
	</g>
	<g>
	</g>
	<g>
	</g>
	<g>
	</g>
	<g>
	</g>
	<g>
	</g>
	<g>
	</g>
	<g>
	</g>
	<g>
	</g>
</g>
</svg>
