<?xml version="1.0" encoding="utf-8"?>
<!-- Generator: Adobe Illustrator 16.0.0, SVG Export Plug-In . SVG Version: 6.00 Build 0)  -->
<!DOCTYPE svg PUBLIC "-//W3C//DTD SVG 1.1//EN" "http://www.w3.org/Graphics/SVG/1.1/DTD/svg11.dtd">
<svg version="1.1" xmlns="http://www.w3.org/2000/svg" xmlns:xlink="http://www.w3.org/1999/xlink" x="0px" y="0px" width="480px"
	 height="480px" viewBox="0 0 480 480" enable-background="new 0 0 480 480" xml:space="preserve">
<g id="Layer_2">
	<polyline fill="#FFFFFF" points="205.458,168.604 209.521,137.198 231.864,123.578 257.338,128.227 275,145.896 275,177 
		287.021,179.75 332.854,158.396 377.646,159.438 425.042,185.479 433.375,231.833 422.958,262.042 392.75,293.292 377.125,309.438 
		369.313,326.104 366.708,356.833 375.042,397.979 381.813,413.208 300.042,430 213,430 148.479,426.625 110.458,413.604 
		106.813,402.146 117.229,373.5 115.146,346.417 106.813,309.958 81.292,290.688 49.521,242.74 52.646,195.375 69.833,171.938 
		90.667,161 124,156.833 154.208,162.563 183.896,172.458 210.458,184.958 205.458,168.604 	"/>
</g>
<g id="Layer_1">
	<g>
		<rect fill="none" width="480.771" height="485.479"/>
		<path d="M108.901,357.883l-7.734-43.828c-0.157,0-0.392-0.312-0.703-0.938c-0.784-1.092-3.01-2.538-6.68-4.336
			c-3.673-1.795-7.932-4.882-12.773-9.258c-6.877-5.779-12.228-10.467-16.055-14.063c-3.831-3.593-7.306-7.5-10.43-11.719
			c-9.532-13.125-14.846-28.982-15.938-47.578c-1.563-17.966,5.702-35.859,21.797-53.672c16.249-17.813,38.203-26.169,65.859-25.078
			c10.313,0.626,22.419,3.127,36.328,7.5c4.53,1.875,9.177,3.713,13.945,5.508c4.765,1.798,9.492,3.633,14.18,5.508
			c2.498,1.252,4.688,2.501,6.563,3.75c-0.784-3.281-1.172-6.563-1.172-9.844c0-12.188,4.336-22.577,13.008-31.172
			c8.672-8.591,19.102-12.968,31.289-13.125c12.187,0,22.578,4.336,31.171,13.008c8.592,8.672,12.891,19.024,12.891,31.055
			c0,2.501-0.314,5.782-0.938,9.844c2.188-1.406,4.297-2.578,6.328-3.516c7.186-3.124,16.641-6.797,28.359-11.016
			c13.438-4.53,25.547-7.108,36.328-7.734c27.656-1.249,49.531,7.112,65.625,25.078c15.781,17.813,23.123,35.706,22.031,53.672
			c-1.252,18.596-6.643,34.453-16.172,47.578c-3.127,4.219-6.643,8.166-10.547,11.836c-3.906,3.673-9.141,8.32-15.703,13.945
			c-5.156,4.376-9.531,7.463-13.125,9.258c-3.596,1.798-5.705,3.244-6.328,4.336c-0.156,0.314-0.314,0.549-0.469,0.703
			c-0.156,0.157-0.234,0.314-0.234,0.469l-7.5,44.063l15.469,57.891c-7.814,7.031-25.313,12.813-52.5,17.344
			c-27.188,4.533-58.594,6.797-94.218,6.797c-36.251,0-68.126-2.381-95.625-7.148c-27.502-4.765-44.766-10.741-51.797-17.93
			L108.901,357.883z M232.182,280.305c-0.157-6.094-0.392-12.147-0.703-18.164c-0.315-6.014-1.487-12.693-3.516-20.039
			c-6.409-20.937-16.095-37.812-29.063-50.625c-6.72-6.563-17.032-12.656-30.938-18.281c-15.938-6.248-31.018-9.375-45.234-9.375
			c-24.69,0-42.971,8.829-54.844,26.484c-6.72,9.375-10.078,21.094-10.078,35.156c0,15.315,3.75,27.891,11.25,37.734
			c4.53,5.782,10.313,11.564,17.344,17.344c7.031,5.782,13.594,11.016,19.688,15.703
			C133.43,286.398,175.463,281.088,232.182,280.305z M368.354,407.336c-30.156-12.188-72.502-18.281-127.031-18.281
			c-56.564,0-99.375,6.251-128.437,18.75c27.499,10.938,70.078,16.406,127.734,16.406c27.5,0,52.578-1.523,75.234-4.57
			C338.508,416.594,356.01,412.492,368.354,407.336z M123.198,343.586c29.685-7.5,69.06-11.25,118.125-11.25
			c48.125,0,86.953,3.596,116.484,10.781l5.859-34.453c-31.406-8.28-72.502-12.422-123.281-12.422
			c-51.094,0-92.109,4.219-123.047,12.656L123.198,343.586z M362.26,385.305l-7.031-26.953
			c-30.938-6.874-69.221-10.313-114.843-10.313c-45.469,0-83.672,3.438-114.609,10.313l-7.5,27.188
			c29.843-8.749,70.624-13.125,122.344-13.125C292.025,372.414,332.572,376.713,362.26,385.305z M248.588,114.836h-16.64V84.133
			h-19.453c-5.313,0-7.969-2.578-7.969-7.734v-0.234c0-5.156,2.655-7.734,7.969-7.734h19.453V48.508
			c0-5.468,2.813-8.203,8.438-8.203c5.468,0,8.203,2.735,8.203,8.203V68.43h20.156c5.156,0,7.734,2.578,7.734,7.734v0.234
			c0,5.156-2.578,7.734-7.734,7.734l-19.922,0.234L248.588,114.836z M240.385,236.711c1.091-4.373,2.029-7.419,2.812-9.141
			c1.561-6.094,3.359-11.25,5.391-15.469c0.938-2.655,2.305-5.742,4.102-9.258c1.795-3.516,3.711-7.537,5.742-12.07
			c1.25-2.655,2.578-5.896,3.984-9.727c1.406-3.827,2.813-7.617,4.219-11.367c1.25-3.124,1.875-6.482,1.875-10.078
			c0-7.654-2.734-14.18-8.203-19.57c-5.471-5.391-12.109-8.086-19.921-8.086c-18.596,0-27.891,9.298-27.891,27.891
			c0,3.596,0.623,6.954,1.875,10.078c3.435,10.159,6.094,17.19,7.969,21.094c2.029,4.534,3.904,8.555,5.625,12.07
			c1.718,3.516,3.201,6.603,4.453,9.258c2.029,5.156,3.75,10.313,5.156,15.469C237.884,228.742,238.822,231.712,240.385,236.711z
			 M248.354,280.305c26.873,0.314,51.482,1.915,73.828,4.805c22.344,2.893,39.844,6.525,52.5,10.898
			c5.938-4.688,12.422-9.881,19.453-15.586c7.031-5.702,12.891-11.521,17.578-17.461c7.5-9.529,11.25-22.108,11.25-37.734
			c0-14.063-3.361-25.781-10.078-35.156c-12.033-17.498-30.314-26.25-54.844-26.25c-14.688,0-29.766,3.047-45.234,9.141
			c-13.594,5.471-23.906,11.565-30.938,18.281c-13.125,13.125-22.814,30-29.063,50.625c-2.189,7.346-3.479,14.025-3.867,20.039
			C248.549,267.923,248.354,274.057,248.354,280.305z"/>
	</g>
	<g>
	</g>
	<g>
	</g>
	<g>
	</g>
	<g>
	</g>
	<g>
	</g>
	<g>
	</g>
	<g>
	</g>
	<g>
	</g>
	<g>
	</g>
	<g>
	</g>
	<g>
	</g>
	<g>
	</g>
	<g>
	</g>
	<g>
	</g>
	<g>
	</g>
</g>
</svg>
