<?xml version="1.0" encoding="utf-8"?>
<!-- Generator: Adobe Illustrator 16.0.0, SVG Export Plug-In . SVG Version: 6.00 Build 0)  -->
<!DOCTYPE svg PUBLIC "-//W3C//DTD SVG 1.1//EN" "http://www.w3.org/Graphics/SVG/1.1/DTD/svg11.dtd">
<svg version="1.1" xmlns="http://www.w3.org/2000/svg" xmlns:xlink="http://www.w3.org/1999/xlink" x="0px" y="0px" width="480px"
	 height="480px" viewBox="0 0 480 480" enable-background="new 0 0 480 480" xml:space="preserve">
<g id="Layer_2">
	<polyline fill="#FFFFFF" stroke="#000000" stroke-miterlimit="10" points="104.521,157.573 116.604,131.943 133.323,111.576 
		121.891,52.173 165.653,74.555 183.89,100.069 198.997,94.337 209.936,71.939 218.791,56.313 235.458,67.25 249.521,95.896 
		288.063,94.333 321.917,113.604 383.375,170.375 408.896,237.563 427.125,333.614 421.917,425.5 159,425.5 167.75,379.75 
		196.917,338.083 237.542,301.104 250.042,259.438 245.875,238.837 215.667,253.188 178.688,270.896 145.875,301.104 
		128.167,338.604 110.458,341.208 93.792,325.063 68.792,321.938 50.563,285.479 59.417,247.458 89.625,205.271 104.521,157.573 	
		"/>
</g>
<g id="Layer_1">
	<g>
		<rect fill="none" width="480.771" height="485.479"/>
		<path d="M253.275,82.492c24.529,1.563,47.264,7.892,68.203,18.984c20.938,11.096,38.75,25.313,53.438,42.656
			c10.313,12.188,20.039,26.876,29.18,44.063c9.141,17.19,16.443,35.391,21.914,54.609c6.248,22.346,10.195,45.82,11.836,70.43
			s2.461,47.384,2.461,68.32v51.094c-48.596,0-92.266,0-131.016,0H152.026c-1.406,0-2.073-3.827-1.992-11.484
			c0.077-7.654,0.586-13.828,1.523-18.516c0.623-3.75,2.109-9.061,4.453-15.938c2.344-6.874,6.248-15.234,11.719-25.078
			c2.498-4.999,8.438-12.305,17.813-21.914s20.156-20.742,32.344-33.398c7.031-7.186,12.539-16.249,16.523-27.188
			c3.984-10.936,5.662-20.859,5.039-29.766c-5.782,4.688-12.11,8.518-18.984,11.484c-33.127,11.876-57.11,29.063-71.953,51.563
			c-1.095,1.406-4.61,7.734-10.547,18.984c-3.127,5.939-5.782,10.001-7.969,12.188c-2.97,2.97-7.266,4.61-12.891,4.922
			c-8.752,0.469-15.549-3.75-20.391-12.656c-6.563,1.875-12.422,2.658-17.578,2.344c-8.752-3.281-15.081-6.797-18.984-10.547
			c-7.969-7.969-13.165-15.938-15.586-23.906c-2.424-7.969-3.633-16.561-3.633-25.781c0-13.125,8.123-30.469,24.375-52.031
			c19.062-24.844,29.216-43.748,30.469-56.719c0-5.625,0.546-11.953,1.641-18.984c0.938-4.841,2.89-9.529,5.859-14.063
			c2.029-3.124,3.398-5.273,4.102-6.445s1.992-2.93,3.867-5.273c1.406-1.875,2.578-3.318,3.516-4.336
			c0.938-1.015,2.109-2.38,3.516-4.102c1.718-2.029,3.904-4.373,6.563-7.031c-8.284-22.812-11.642-46.326-10.078-70.547
			c31.091,11.096,57.188,28.517,78.281,52.266c5.156-17.655,15.312-31.952,30.469-42.891
			C236.009,56.557,245.93,68.118,253.275,82.492z M411.947,416.008c-0.156,0,0-4.256,0.469-12.773
			c0.469-8.515,0.703-17.695,0.703-27.539c0.154-19.53,0.154-39.727,0-60.586c-0.156-20.859-2.969-41.679-8.438-62.461
			c-5.313-19.999-11.172-37.068-17.578-51.211c-6.408-14.14-13.359-26.367-20.859-36.68c-11.25-16.875-26.564-31.172-45.938-42.891
			c-19.375-11.719-39.609-19.373-60.703-22.969c1.406,7.657,2.029,15.157,1.875,22.5c-0.314,5.625-2.969,8.438-7.969,8.438
			c-5.781,0-8.359-2.813-7.734-8.438c0.469-20.625-6.877-38.28-22.031-52.969c-11.876,12.502-18.281,27.034-19.219,43.594
			c-0.315,5.471-3.127,7.892-8.438,7.266c-5.002-0.154-7.5-3.047-7.5-8.672l0.469-1.875c-6.409,2.032-13.125,4.922-20.156,8.672
			c-4.534,3.127-8.203,2.344-11.016-2.344s-1.563-8.357,3.75-11.016c6.716-3.435,11.796-6.013,15.234-7.734
			c-13.44-13.748-28.751-24.844-45.938-33.281c1.875,21.72,7.812,42.268,17.813,61.641c2.655,4.065,2.029,7.657-1.875,10.781
			c-4.376,3.438-8.049,2.893-11.016-1.641c-1.095-1.56-2.659-4.373-4.688-8.438c-3.281,3.281-5.471,5.706-6.563,7.266
			c-1.095,1.406-3.01,4.534-5.742,9.375c-2.735,4.845-4.728,8.829-5.977,11.953c-1.406,3.907-1.992,7.071-1.758,9.492
			c0.234,2.424,0.429,5.12,0.586,8.086c-1.406,9.221-4.57,17.893-9.492,26.016c-4.922,8.126-11.213,18.047-18.867,29.766
			c-7.346,11.25-12.971,19.688-16.875,25.313c-3.907,5.625-6.877,12.813-8.906,21.563c-1.406,5.313-1.406,11.759,0,19.336
			c1.406,7.58,4.453,13.477,9.141,17.695c7.185,7.346,14.14,10.704,20.859,10.078c2.187,0,5.116-0.857,8.789-2.578
			c3.669-1.718,6.522-4.999,8.555-9.844c4.062-8.906,7.419-13.359,10.078-13.359c3.904,0,6.013,2.189,6.328,6.563
			c0,0.938-1.252,4.845-3.75,11.719c-1.406,3.127-3.281,6.408-5.625,9.844c-2.97,4.064-4.299,5.782-3.984,5.156
			c2.498,8.906,6.64,10.47,12.422,4.688c1.718-1.718,3.669-4.922,5.859-9.609c2.187-4.688,5.625-11.016,10.313-18.984
			c5.468-9.218,11.327-16.718,17.578-22.5c6.248-5.779,11.796-10.467,16.641-14.063c2.813-2.029,6.248-4.373,10.313-7.031
			c4.062-2.655,9.529-5.391,16.406-8.203c5.468-2.187,11.521-4.882,18.164-8.086c6.64-3.201,12.539-7.302,17.695-12.305
			c7.185-7.031,12.734-15.703,16.64-26.016c2.029-5.779,2.813-12.891,2.344-21.328c-1.406-5.31,1.25-7.969,7.969-7.969
			c5,0,7.813,2.578,8.438,7.734c0,17.659-5.002,33.75-15,48.281c3.281,10.001,4.139,20.939,2.578,32.813
			c-1.406,9.532-4.727,19.728-9.961,30.586c-5.236,10.861-15.82,22.932-31.757,36.211c-32.344,26.876-47.659,54.532-45.938,82.969
			c53.28,0,91.64,0,115.078,0H411.947z M94.135,273.508c-4.534,2.813-7.266,6.563-8.203,11.25c0.154,5.156-2.267,7.969-7.266,8.438
			c-5.471,0.626-8.284-1.718-8.438-7.031c0.623-10.313,5.233-18.516,13.828-24.609c4.062-3.281,7.812-2.967,11.25,0.938
			C98.742,266.711,98.354,270.384,94.135,273.508z M163.745,161.711c2.029,3.127,2.813,6.409,2.344,9.844
			c-1.563,10.001-7.112,14.22-16.641,12.656c-2.813-0.469-5.079-1.406-6.797-2.813c-0.626,0.784-1.563,2.501-2.813,5.156
			c-1.721,5.002-5.002,6.72-9.844,5.156c-4.845-1.875-6.72-5.391-5.625-10.547c7.031-17.966,19.765-30.312,38.203-37.031
			c5.31-1.56,8.826,0,10.547,4.688c1.875,5.002,0.469,8.438-4.219,10.313c-0.938,0.469-1.798,0.901-2.578,1.289
			C165.539,160.813,164.682,161.242,163.745,161.711z"/>
	</g>
	<g>
	</g>
	<g>
	</g>
	<g>
	</g>
	<g>
	</g>
	<g>
	</g>
	<g>
	</g>
	<g>
	</g>
	<g>
	</g>
	<g>
	</g>
	<g>
	</g>
	<g>
	</g>
	<g>
	</g>
	<g>
	</g>
	<g>
	</g>
	<g>
	</g>
</g>
</svg>
