<?xml version="1.0" encoding="utf-8"?>
<!-- Generator: Adobe Illustrator 16.0.0, SVG Export Plug-In . SVG Version: 6.00 Build 0)  -->
<!DOCTYPE svg PUBLIC "-//W3C//DTD SVG 1.1//EN" "http://www.w3.org/Graphics/SVG/1.1/DTD/svg11.dtd">
<svg version="1.1" xmlns="http://www.w3.org/2000/svg" xmlns:xlink="http://www.w3.org/1999/xlink" x="0px" y="0px" width="480px"
	 height="480px" viewBox="0 0 480 480" enable-background="new 0 0 480 480" xml:space="preserve">
<g id="Layer_7">
	<polyline fill="#FFFFFF" points="151,138 162,138 202.125,251.625 213.583,245.896 240,116.208 268.792,251.625 279.208,247.458 
		329.208,128.188 332.333,257.875 345.313,255.271 401,153.708 401,221 387.542,283.917 372.104,315.167 365,343.813 365,370 
		371.917,401.104 374,412.042 324.521,426.104 240,429.75 175.563,426.625 127.646,418.813 104.208,409.438 117.75,366.729 
		117.229,342.771 109.938,314.646 95.875,292.25 89.104,262.563 75.563,154.229 145.875,263.604 151,138 	"/>
</g>
<g id="Layer_6">
	<polyline fill="#FFFFFF" points="426.521,84.75 451,96.417 451,121 426.521,130.792 405.771,121.938 401.083,103.708 
		405.771,84.958 426.521,84.75 	"/>
</g>
<g id="Layer_5">
	<polyline fill="#FFFFFF" points="327.125,58.708 355.25,61.521 364.625,84.958 352.646,103.708 321.396,96.417 314.625,69.854 
		327.125,58.708 	"/>
</g>
<g id="Layer_4">
	<polygon fill="#FFFFFF" points="228.167,46.938 256.813,49.021 263.063,73.5 253.167,92.771 228.167,89.125 217.229,67.25 	"/>
</g>
<g id="Layer_3">
	<polyline fill="#FFFFFF" points="127.625,58.708 162,64.125 162,96 144.813,103.708 125.042,96.938 119.833,78.708 127.625,58.708 
			"/>
</g>
<g id="Layer_2">
	<polyline fill="#FFFFFF" points="42.229,87.563 70.354,84.958 79.208,106.313 74,124.542 46.917,128.188 31.292,106.573 
		42.229,87.563 	"/>
</g>
<g id="Layer_1">
	<g>
		<rect fill="none" width="480.771" height="485.479"/>
		<path d="M55.698,137.805c-8.906,0-16.446-3.083-22.617-9.258c-6.174-6.171-9.258-13.711-9.258-22.617
			c0-8.749,3.083-16.289,9.258-22.617c6.171-6.328,13.711-9.492,22.617-9.492s16.483,3.164,22.734,9.492
			c6.248,6.328,9.375,13.868,9.375,22.617c0,8.906-3.127,16.446-9.375,22.617C72.181,134.721,64.604,137.805,55.698,137.805z
			 M55.698,121.398c10.466,0,15.703-5.156,15.703-15.469c0-10.466-5.237-15.703-15.703-15.703c-10.313,0-15.469,5.237-15.469,15.703
			C40.229,116.242,45.385,121.398,55.698,121.398z M384.76,413.898c-7.656,6.72-24.844,12.345-51.563,16.875
			c-26.719,4.533-57.502,6.797-92.343,6.797c-35.471,0-66.643-2.344-93.516-7.031c-26.876-4.688-43.828-10.547-50.859-17.578
			l14.766-56.25l-6.563-36.797l-20.625-35.859L64.135,138.273l11.484-4.453l64.219,108.281l1.406-128.906l15.938-2.813
			l48.984,129.609l26.25-139.453h16.171l26.25,138.984l48.516-129.141l16.172,2.813l1.406,128.906l64.453-108.516l11.016,5.156
			L396.947,283.82l-20.859,35.859l-6.563,37.266L384.76,413.898z M134.213,264.133L83.823,177.18l12.891,79.219
			c8.906,6.251,17.578,9.375,26.016,9.375C126.01,265.773,129.837,265.228,134.213,264.133z M365.541,305.852l15.234-26.953
			c-7.5,2.97-15.156,4.453-22.969,4.453c-20.939,0-37.656-8.515-50.156-25.547c-9.375,7.814-19.844,11.719-31.406,11.719
			c-15,0-26.953-5.859-35.859-17.578c-10.001,10.938-21.954,16.406-35.859,16.406c-11.25,0-21.563-3.827-30.938-11.484
			c-13.125,16.721-30.081,25.078-50.859,25.078c-7.969,0-15.86-1.483-23.672-4.453l16.406,28.125
			c30.312-8.749,71.953-13.125,124.922-13.125C294.291,292.492,336.01,296.945,365.541,305.852z M141.948,112.023
			c-8.906,0-16.487-3.083-22.734-9.258c-6.251-6.171-9.375-13.711-9.375-22.617c0-8.749,3.124-16.249,9.375-22.5
			c6.248-6.248,13.828-9.375,22.734-9.375c8.749,0,16.249,3.127,22.5,9.375c6.248,6.251,9.375,13.751,9.375,22.5
			c0,8.906-3.127,16.446-9.375,22.617C158.197,108.94,150.697,112.023,141.948,112.023z M365.775,405.461
			c-28.594-11.873-70.078-17.813-124.453-17.813c-55.469,0-97.422,6.094-125.859,18.281c27.341,10.781,69.06,16.172,125.156,16.172
			c26.873,0,51.445-1.483,73.71-4.453C336.596,414.682,353.742,410.617,365.775,405.461z M359.916,383.898l-7.031-26.484
			c-30.625-6.717-68.125-10.078-112.5-10.078c-43.909,0-81.328,3.361-112.266,10.078l-7.266,26.719
			c29.063-8.749,68.983-13.125,119.766-13.125C290.15,371.008,329.916,375.307,359.916,383.898z M359.682,319.914
			c-30.156-7.654-69.609-11.484-118.359-11.484c-50.002,0-89.922,3.907-119.765,11.719l3.516,22.5
			c30.469-7.186,69.218-10.781,116.25-10.781c46.719,0,84.844,3.516,114.375,10.547L359.682,319.914z M141.948,95.617
			c10.313,0,15.469-5.156,15.469-15.469S152.26,64.68,141.948,64.68c-10.47,0-15.703,5.156-15.703,15.469
			S131.478,95.617,141.948,95.617z M155.307,145.773v107.109c0.469-0.623,1.172-1.406,2.109-2.344
			c3.124-6.563,8.28-9.844,15.469-9.844c5.937,0,10.781,2.501,14.531,7.5l6.328,2.813L155.307,145.773z M240.385,100.305
			c-8.906,0-16.446-3.124-22.617-9.375c-6.174-6.248-9.258-13.828-9.258-22.734c0-8.749,3.083-16.249,9.258-22.5
			c6.171-6.248,13.711-9.375,22.617-9.375c8.75,0,16.289,3.127,22.617,9.375c6.328,6.251,9.492,13.751,9.492,22.5
			c0,8.906-3.164,16.487-9.492,22.734C256.674,97.181,249.135,100.305,240.385,100.305z M260.541,249.836L240.62,135.227
			L220.698,248.43c0.469-0.312,1.56-1.092,3.281-2.344c3.593-7.031,9.06-10.547,16.406-10.547c7.968,0,13.125,3.516,15.468,10.547
			C256.791,247.023,258.352,248.275,260.541,249.836z M240.385,83.898c10.466,0,15.703-5.233,15.703-15.703
			c0-10.313-5.236-15.469-15.703-15.469c-10.313,0-15.469,5.156-15.469,15.469C224.917,78.665,230.073,83.898,240.385,83.898z
			 M325.463,254.289V145.773L286.791,252.18c2.967-1.092,5.469-2.498,7.5-4.219c3.125-3.904,7.344-5.859,12.656-5.859
			c6.248,0,11.25,2.735,15,8.203c0.469,0.626,1.016,1.289,1.641,1.992C324.211,253,324.838,253.666,325.463,254.289z
			 M338.822,112.023c-8.906,0-16.445-3.083-22.617-9.258c-6.174-6.171-9.258-13.711-9.258-22.617c0-8.749,3.084-16.249,9.258-22.5
			c6.172-6.248,13.711-9.375,22.617-9.375s16.484,3.127,22.734,9.375c6.248,6.251,9.375,13.751,9.375,22.5
			c0,8.906-3.127,16.446-9.375,22.617C355.307,108.94,347.729,112.023,338.822,112.023z M338.822,95.617
			c10.467,0,15.703-5.156,15.703-15.469s-5.236-15.469-15.703-15.469c-10.313,0-15.469,5.156-15.469,15.469
			S328.51,95.617,338.822,95.617z M345.854,265.305c3.594,1.095,7.578,1.641,11.953,1.641c9.529,0,18.436-2.967,26.719-8.906
			l12.891-81.094L345.854,265.305z M425.541,137.805c-8.906,0-16.486-3.083-22.734-9.258c-6.25-6.171-9.375-13.711-9.375-22.617
			c0-8.749,3.125-16.289,9.375-22.617c6.248-6.328,13.828-9.492,22.734-9.492c8.75,0,16.25,3.164,22.5,9.492
			c6.248,6.328,9.375,13.868,9.375,22.617c0,8.906-3.127,16.446-9.375,22.617C441.791,134.721,434.291,137.805,425.541,137.805z
			 M425.541,121.398c10.313,0,15.469-5.156,15.469-15.469c0-10.466-5.156-15.703-15.469-15.703
			c-10.469,0-15.703,5.237-15.703,15.703C409.838,116.242,415.072,121.398,425.541,121.398z"/>
	</g>
	<g>
	</g>
	<g>
	</g>
	<g>
	</g>
	<g>
	</g>
	<g>
	</g>
	<g>
	</g>
	<g>
	</g>
	<g>
	</g>
	<g>
	</g>
	<g>
	</g>
	<g>
	</g>
	<g>
	</g>
	<g>
	</g>
	<g>
	</g>
	<g>
	</g>
</g>
</svg>
