<?xml version="1.0" encoding="utf-8"?>
<!-- Generator: Adobe Illustrator 16.0.0, SVG Export Plug-In . SVG Version: 6.00 Build 0)  -->
<!DOCTYPE svg PUBLIC "-//W3C//DTD SVG 1.1//EN" "http://www.w3.org/Graphics/SVG/1.1/DTD/svg11.dtd">
<svg version="1.1" xmlns="http://www.w3.org/2000/svg" xmlns:xlink="http://www.w3.org/1999/xlink" x="0px" y="0px" width="480px"
	 height="480px" viewBox="0 0 480 480" enable-background="new 0 0 480 480" xml:space="preserve">
<g id="Layer_2">
	<polyline fill="#FFFFFF" points="113,122 113,58 159,58 159,90 217,90 217,58 261,58 261,90 318,90 318,58 367,58 367,127 
		317.75,169.854 316.708,288.604 354.208,332.875 354.729,380.792 387.542,389.656 393.271,423 90,423 90,383 125.042,382.875 
		126.604,341.729 132.333,326.104 165.146,295.896 163.583,168.292 113,122 	"/>
</g>
<g id="Layer_1">
	<g>
		<rect fill="none" width="480.771" height="485.479"/>
		<path d="M272.494,80.383h39.844V48.273h64.219v87.891l-52.031,40.078v112.031l39.844,39.844v48.047h35.859v56.016H80.307v-56.016
			h35.859v-48.047l40.078-39.844V176.242l-52.031-40.078V48.273h63.984v32.109h40.078V48.273h64.218V80.383z M384.525,392.102
			H96.245v24.141h288.281V392.102z M360.385,120.227V64.211h-32.109V96.32h-72.188V64.211h-31.64V96.32h-71.953V64.211h-32.109
			v56.016H360.385z M348.197,344.289H132.573v31.875h215.625V344.289z M316.557,160.305l29.766-24.141H134.448l30,24.141H316.557z
			 M342.338,328.117l-24.141-23.906h-155.39l-24.609,23.906H342.338z M308.354,176.242H172.417v112.031h135.937V176.242z"/>
	</g>
	<g>
	</g>
	<g>
	</g>
	<g>
	</g>
	<g>
	</g>
	<g>
	</g>
	<g>
	</g>
	<g>
	</g>
	<g>
	</g>
	<g>
	</g>
	<g>
	</g>
	<g>
	</g>
	<g>
	</g>
	<g>
	</g>
	<g>
	</g>
	<g>
	</g>
</g>
</svg>
